<svg id="visual" viewBox="0 0 900 600" width="900" height="600" xmlns="http://www.w3.org/2000/svg" xmlns:xlink="http://www.w3.org/1999/xlink" version="1.1"><rect x="0" y="0" width="900" height="600" fill="#001220"></rect><defs><linearGradient id="grad1_0" x1="33.3%" y1="100%" x2="100%" y2="0%"><stop offset="20%" stop-color="#001220" stop-opacity="1"></stop><stop offset="80%" stop-color="#001220" stop-opacity="1"></stop></linearGradient></defs><defs><linearGradient id="grad2_0" x1="0%" y1="100%" x2="66.7%" y2="0%"><stop offset="20%" stop-color="#001220" stop-opacity="1"></stop><stop offset="80%" stop-color="#001220" stop-opacity="1"></stop></linearGradient></defs><g transform="translate(900, 600)"><path d="M-486.7 0C-478.2 -92.4 -469.6 -184.7 -421.5 -243.4C-373.5 -302 -285.8 -327 -209 -362C-132.2 -396.9 -66.1 -441.8 0 -486.7L0 0Z" fill="#8469fd"></path></g><g transform="translate(0, 0)"><path d="M486.7 0C478.9 93.5 471 187 421.5 243.4C372.1 299.7 281.2 319 204 353.3C126.8 387.7 63.4 437.2 0 486.7L0 0Z" fill="#8469fd"></path></g></svg>